<svg xmlns="http://www.w3.org/2000/svg" xmlns:xlink="http://www.w3.org/1999/xlink" version="1.1" x="0px" y="0px" viewBox="0 0 100 125" style="enable-background:new 0 0 100 100;" xml:space="preserve"><g><path d="M15.5,35.6c-2.6-7.8-2.8-15-0.7-17.8c-0.1,0-0.2,0-0.3,0c-0.6-0.1-1.1-0.1-1.6,0c-3.5,1.2-3.8,9.7-0.7,19   C15.2,46,20.6,52.6,24,51.5c0.5-0.2,1-0.5,1.3-1c0.1-0.1,0.1-0.1,0.2-0.2C22.2,49.3,18.1,43.4,15.5,35.6z"/><polygon points="16.4,18 16.4,18 16.4,18  "/><path d="M88.9,79.5C75,66.1,64.1,49.4,57.2,31.2c0.3-0.1,0.5-0.2,0.8-0.3c0.9-0.3,1.4-1.4,1.1-2.3l-4.5-13.4   c-0.3-0.9-1.3-1.5-2.3-1.2c-0.1,0-0.2,0.1-0.3,0.1c0-0.1-0.1-0.2-0.1-0.4c-0.2-1.1-1.3-1.8-2.3-1.5c-3.1,0.7-6.1,1.4-9.2,2.1   c-1,0.2-1.7,1.4-1.3,2.6c0,0.1,0.1,0.3,0.1,0.4C31.9,18.6,24.4,19,16.4,18c-0.9,0.5-1.6,2.5-1.7,5.1c-0.1,3.4,0.6,7.7,2,12.1   c1.4,4.4,3.3,8.2,5.5,10.9c1.7,2.1,3.2,3.2,4.4,3.1v0c5.9-5.5,12.4-9.8,19-13.1c8.4,19.6,21,37.1,36.5,50.8   c1.6,1.4,3.9,1.3,5.1-0.2c0.6-0.7,1.3-1.5,1.9-2.2C90.4,83,90.3,80.8,88.9,79.5z"/></g><text x="0" y="115" fill="#000000" font-size="5px" font-weight="bold" font-family="'Helvetica Neue', Helvetica, Arial-Unicode, Arial, Sans-serif">Created by Musmellow</text><text x="0" y="120" fill="#000000" font-size="5px" font-weight="bold" font-family="'Helvetica Neue', Helvetica, Arial-Unicode, Arial, Sans-serif">from the Noun Project</text></svg>