<svg xmlns="http://www.w3.org/2000/svg" xmlns:xlink="http://www.w3.org/1999/xlink" version="1.1" x="0px" y="0px" viewBox="0 0 100 125" enable-background="new 0 0 100 100" xml:space="preserve"><path fill-rule="evenodd" clip-rule="evenodd" d="M41.234,9.473c-4.185,0-6.053,1.182-6.813,3.254v38.744  c-0.099,0.301-0.152,0.623-0.152,0.956v14.436c0,0.334,0.053,0.656,0.152,0.957v20.495c0.576,1.3,1.881,2.212,3.387,2.212h0.001  h4.072c5.924,0,6.689-22.21,2.298-27.957v-3.965h0.729h10.07c1.168,0,3.383,0.653,4.462-3.039c1.582-2.914,5.193-22.28,6.29-46.092  H41.234z M39.662,87.559c-1.221,0-2.22-0.999-2.22-2.22c0-1.221,0.999-2.22,2.22-2.22c1.222,0,2.219,0.999,2.219,2.22  C41.881,86.56,40.884,87.559,39.662,87.559z"/><text x="0" y="115" fill="#000000" font-size="5px" font-weight="bold" font-family="'Helvetica Neue', Helvetica, Arial-Unicode, Arial, Sans-serif">Created by Joana Pereira</text><text x="0" y="120" fill="#000000" font-size="5px" font-weight="bold" font-family="'Helvetica Neue', Helvetica, Arial-Unicode, Arial, Sans-serif">from the Noun Project</text></svg>