<svg xmlns="http://www.w3.org/2000/svg" viewBox="0 0 100 125" x="0px" y="0px"><path d="M91.95,93.8c-1.28-1.04-7.1-5.8-8.43-6.88-.18-.15-.34-.31-.47-.5-8.74-12.17-42.98-57.94-52.11-70.39-1.49-1.96-3.4-4.81-5.18-6.48-3.99-4.06-10.05-6.56-14.97-2.38-4.54,4.19-2.72,13.1-1.01,18.29l.07,.21c.09,.28,.38,.44,.74,.34l.6-.15c.3-.08,.49-.37,.45-.67-.24-1.75-.4-3.55-.5-5.32-.1-2.83-.21-8.43,2.32-10.11,3.23-2.25,7.33-.11,9.85,2.34,.84,.8,1.62,1.69,2.33,2.61,4.41,5.97,12.34,16.77,16.82,22.85,10.7,14.53,27.4,37.21,37.96,51.66,.07,.09,.14,.17,.21,.25l.14,.14c.16,.16,.35,.3,.56,.41,1.55,.78,8.41,4.21,9.86,4.94,.15,.08,.34,.03,.44-.11l.39-.56c.1-.15,.08-.35-.06-.47Zm-27.45-30.19c5.18,7.09,13.03,17.13,17.83,24.38-5.54-6.64-12.95-17.05-18.26-24.06-10.18-13.54-28.11-37.98-38.34-51.46-2.39-2.75-5.6-5.37-9.41-5.38-2.45,.02-4.96,1.44-5.81,3.82-.9,2.34-.93,4.92-.81,7.4,0,0-.2,.01-.2,.01-.14-3.1-.2-6.56,1.7-9.18,2.16-2.57,5.89-2.92,8.83-1.57,2.35,1.02,4.31,2.74,5.98,4.64,10.3,13.4,28.3,37.86,38.46,51.4Z"/><text x="0" y="115" fill="#000000" font-size="5px" font-weight="bold" font-family="'Helvetica Neue', Helvetica, Arial-Unicode, Arial, Sans-serif">Created by Adam Daily</text><text x="0" y="120" fill="#000000" font-size="5px" font-weight="bold" font-family="'Helvetica Neue', Helvetica, Arial-Unicode, Arial, Sans-serif">from the Noun Project</text></svg>