<svg xmlns="http://www.w3.org/2000/svg" xmlns:xlink="http://www.w3.org/1999/xlink" version="1.1" x="0px" y="0px" viewBox="0 0 100 125" enable-background="new 0 0 100 100" xml:space="preserve"><g><polygon points="52.043,25.564 54.332,18.224 50.617,6.168 26.506,13.598 30.221,25.653 36.249,30.436 37.92,35.846 53.711,30.98     "/><polygon points="58.057,53.381 52.01,33.783 40.895,37.209 46.937,56.807  "/><polygon points="54.906,56.625 51.367,57.718 61.252,89.787 64.574,94.271 64.799,88.694 64.789,88.694  "/><polygon points="54.029,9.844 55.078,13.265 64.818,10.266 63.762,6.845  "/><polygon points="64.301,4.963 63.301,5.271 65.32,11.824 66.318,11.51  "/><polygon points="16.029,21.557 17.078,24.977 26.82,21.979 25.762,18.557  "/><polygon points="14.524,20.312 16.543,26.858 17.538,26.545 15.524,19.998  "/><path d="M85.559,87.841c-1.156-2.469-7.381-8.398-8.82-7.82c-1.451,0.578-1.734,8.605-3.475,8.713s-6.945,3.583-6.945,6.185h22.568   C88.887,94.918,86.715,90.312,85.559,87.841z"/><path d="M52.455,89.855c-1.608-0.289-4.181-5.063-4.181-5.063c-3.18,1.594-4.949,10.125-4.949,10.125h18.261   C61.586,93.183,54.059,90.145,52.455,89.855z"/></g><text x="0" y="115" fill="#000000" font-size="5px" font-weight="bold" font-family="'Helvetica Neue', Helvetica, Arial-Unicode, Arial, Sans-serif">Created by Ricardo Moreira</text><text x="0" y="120" fill="#000000" font-size="5px" font-weight="bold" font-family="'Helvetica Neue', Helvetica, Arial-Unicode, Arial, Sans-serif">from the Noun Project</text></svg>