<svg xmlns="http://www.w3.org/2000/svg" viewBox="0 0 64 80" x="0px" y="0px"><g data-name="Layer 12"><path d="M59.61,29.11,50.47,20c1.27-1.19,2.68-2.59,2.6-4.49,0-4.15-5.12-5.93-7.92-3.06L44,13.53,34.89,4.39a3.69,3.69,0,0,0-5.23,0l-8.94,8.93a3.71,3.71,0,0,0,0,5.23l9.15,9.15L4.49,53.08a4.57,4.57,0,0,0,.14,6.57,4.71,4.71,0,0,0,6.45-.3L36.3,34.13l9.15,9.15a3.71,3.71,0,0,0,5.23,0l8.93-8.94A3.69,3.69,0,0,0,59.61,29.11ZM9.67,57.94A2.56,2.56,0,1,1,5.9,54.49L31.29,29.11l3.6,3.6ZM45.45,15l1.11-1.12c1.53-1.63,4.56-.72,4.51,1.64.1,1.28-1.23,2.27-2,3.08Z"/></g><text x="0" y="79" fill="#000000" font-size="5px" font-weight="bold" font-family="'Helvetica Neue', Helvetica, Arial-Unicode, Arial, Sans-serif">Created by Colourcreatype</text><text x="0" y="84" fill="#000000" font-size="5px" font-weight="bold" font-family="'Helvetica Neue', Helvetica, Arial-Unicode, Arial, Sans-serif">from the Noun Project</text></svg>