<svg xmlns="http://www.w3.org/2000/svg" xmlns:xlink="http://www.w3.org/1999/xlink" version="1.1" x="0px" y="0px" viewBox="0 0 100 125" enable-background="new 0 0 100 100" xml:space="preserve"><path fill="#000000" d="M96.699,22.702L78.36,4.362c-1.9-1.899-5.257-1.634-7.482,0.592L64.6,11.233  c-2.228,2.225-2.49,5.581-0.59,7.48l4.517,4.517l-2.175,2.174c-0.865,0.867-1.05,2.199-0.624,3.502L2.888,92.978l5.402,5.401  L72.484,35.42c1.195,0.294,2.381,0.086,3.173-0.707l2.177-2.175l4.515,4.516c1.9,1.9,5.257,1.635,7.481-0.591l6.281-6.278  C98.336,27.958,98.6,24.603,96.699,22.702z M8.31,94.472l-1.514-1.513l60.499-61.683l2.696,2.697L8.31,94.472z M94.641,29.027  l-1.532,1.533l-3.019,3.018l-1.416,1.415c-1.506,1.507-3.687,1.798-5.041,0.734l2.85-2.849c-0.086-0.075-0.171-0.143-0.257-0.225  l-6.27-6.27c-1.871,1.47-3.49,2.327-4.055,1.762l-2.984-2.984c-0.564-0.565,0.291-2.186,1.761-4.055l-6.269-6.27  c-0.146-0.146-0.275-0.297-0.397-0.451l-2.864,2.861c-1.063-1.354-0.771-3.536,0.734-5.042l5.968-5.966  c1.505-1.505,3.688-1.797,5.042-0.733l-2.981,2.98c0.155,0.122,0.307,0.253,0.452,0.399l6.27,6.27  c1.871-1.472,3.493-2.327,4.058-1.764l2.983,2.986c0.564,0.566-0.292,2.186-1.766,4.055l6.272,6.271  c0.081,0.082,0.15,0.169,0.224,0.253l2.971-2.968C96.439,25.339,96.146,27.522,94.641,29.027z"/><text x="0" y="115" fill="#000000" font-size="5px" font-weight="bold" font-family="'Helvetica Neue', Helvetica, Arial-Unicode, Arial, Sans-serif">Created by Yevgeniy Osovets</text><text x="0" y="120" fill="#000000" font-size="5px" font-weight="bold" font-family="'Helvetica Neue', Helvetica, Arial-Unicode, Arial, Sans-serif">from the Noun Project</text></svg>