<svg xmlns="http://www.w3.org/2000/svg" xmlns:xlink="http://www.w3.org/1999/xlink" version="1.1" x="0px" y="0px" viewBox="0 0 52 65" style="enable-background:new 0 0 52 52;" xml:space="preserve"><style type="text/css">
	.st0{fill:none;stroke:#000000;stroke-width:2;stroke-linecap:round;stroke-linejoin:round;stroke-miterlimit:10;}
</style><g><g><path d="M47.9999809,30.2631226c-0.1245117,0-0.25-0.0229492-0.3701172-0.0708008l-12.0864258-4.8125    c-0.1254883-0.050293-0.2397461-0.125-0.3354492-0.2207031L21.9125786,11.9237671    c-0.8354492-0.8310547-1.2958984-1.9370117-1.2958984-3.1142578s0.4599609-2.2836914,1.2958984-3.1157227l2.4169922-2.4057617    c1.7211914-1.7148438,4.5229492-1.7143555,6.2460938-0.0004883l13.2954102,13.2353516    c0.0961914,0.0957031,0.171875,0.2099609,0.222168,0.3354492l4.8344727,12.0317383    c0.1494141,0.371582,0.0629883,0.7958984-0.2197266,1.0791016C48.5170708,30.1610718,48.2607231,30.2631226,47.9999809,30.2631226    z M36.4736137,23.5975952l9.7285156,3.8735352l-3.8876953-9.6762695L29.1645317,4.7050171    c-0.9448242-0.9399414-2.480957-0.9389648-3.4238281,0l-2.4169922,2.40625    c-0.4560547,0.4541016-0.7070313,1.0571289-0.7070313,1.6982422c0,0.640625,0.2509766,1.2431641,0.706543,1.6967773    L36.4736137,23.5975952z"/></g><g><path d="M8.1137505,49.9979858c-0.7011724,0-1.4018559-0.265625-1.9355474-0.796875l-2.3745115-2.362793    c0-0.0004883,0-0.0004883,0-0.0004883c-0.5185547-0.5161133-0.8041992-1.2026367-0.8037109-1.9331055    c0-0.7304688,0.2856445-1.4165039,0.8041992-1.9326172L29.16502,17.7265015c0.390625-0.3886719,1.0205078-0.3886719,1.4111328,0    l4.8334961,4.8115234c0.1884766,0.1875,0.2944336,0.4423828,0.2944336,0.7084961s-0.105957,0.5209961-0.2944336,0.7084961    L10.0488091,49.2011108C9.5151176,49.7323608,8.8144341,49.9979858,8.1137505,49.9979858z M5.2148242,45.4203491    l2.3745117,2.3632813c0.2885742,0.2875977,0.7587895,0.2880859,1.0483403,0.0004883L33.286602,23.246521l-3.4160156-3.4003906    L5.2148242,44.3895874c-0.1386719,0.1381836-0.2148438,0.3208008-0.2148438,0.5151367    C4.9999804,45.0995483,5.0761523,45.2826538,5.2148242,45.4203491L5.2148242,45.4203491z"/></g></g><text x="0" y="67" fill="#000000" font-size="5px" font-weight="bold" font-family="'Helvetica Neue', Helvetica, Arial-Unicode, Arial, Sans-serif">Created by DinosoftLabs</text><text x="0" y="72" fill="#000000" font-size="5px" font-weight="bold" font-family="'Helvetica Neue', Helvetica, Arial-Unicode, Arial, Sans-serif">from the Noun Project</text></svg>