<svg xmlns="http://www.w3.org/2000/svg" data-name="Layer 1" viewBox="0 0 64 80" x="0px" y="0px"><title>hoe, mining, construction and tools, dig, mine</title><path d="M44.18,10H38V7a1,1,0,0,0-1-1H35a3,3,0,0,0-6,0H27a1,1,0,0,0-1,1v3H19.82A20.22,20.22,0,0,0,3,19a46.42,46.42,0,0,1,18.85-4H26v2a1,1,0,0,0,1,1h2V61h6V18h2a1,1,0,0,0,1-1V15h4.15A46.42,46.42,0,0,1,61,19,20.22,20.22,0,0,0,44.18,10ZM36,16H28V8h8Z"/><text x="0" y="79" fill="#000000" font-size="5px" font-weight="bold" font-family="'Helvetica Neue', Helvetica, Arial-Unicode, Arial, Sans-serif">Created by Studio 365</text><text x="0" y="84" fill="#000000" font-size="5px" font-weight="bold" font-family="'Helvetica Neue', Helvetica, Arial-Unicode, Arial, Sans-serif">from the Noun Project</text></svg>