<svg xmlns="http://www.w3.org/2000/svg" xmlns:xlink="http://www.w3.org/1999/xlink" xml:space="preserve" version="1.1" style="shape-rendering:geometricPrecision;text-rendering:geometricPrecision;image-rendering:optimizeQuality;" viewBox="0 0 333 416.25" x="0px" y="0px" fill-rule="evenodd" clip-rule="evenodd"><defs><style type="text/css">
   
    .fil0 {fill:black;fill-rule:nonzero}
   
  </style></defs><g><path class="fil0" d="M124 306c-2,11 -5,18 7,18l96 0c0,-16 -2,-40 -6,-48l-83 -4c-2,1 -4,2 -5,5 -2,9 -2,24 -9,29zm-20 -23c-1,9 13,9 19,7 4,-5 6,-15 6,-21 -1,-12 61,-201 96,-216 6,-20 17,-35 -11,-44 -34,63 -100,213 -110,274zm-3 6c0,3 0,6 1,9 2,5 14,5 19,5 4,-3 5,-7 5,-11 -3,5 -21,4 -25,-3z"/></g><text x="0" y="348" fill="#000000" font-size="5px" font-weight="bold" font-family="'Helvetica Neue', Helvetica, Arial-Unicode, Arial, Sans-serif">Created by Sahiruddin</text><text x="0" y="353" fill="#000000" font-size="5px" font-weight="bold" font-family="'Helvetica Neue', Helvetica, Arial-Unicode, Arial, Sans-serif">from the Noun Project</text></svg>