<svg xmlns="http://www.w3.org/2000/svg" xmlns:xlink="http://www.w3.org/1999/xlink" version="1.1" x="0px" y="0px" viewBox="0 0 480.015 629.99875" style="enable-background:new 0 0 480.015 503.999;" xml:space="preserve"><g><path d="M479.069,334.139l-3.71-15.93c-1.53-6.63-4.9-12.67-9.74-17.47l-98.21-97.58c-7.15-7.11-16.66-11.03-26.77-11.03h-30.2   l-11.94-11.86c-10.59-10.52-27.82-10.52-38.41,0l-7.01,6.97l-46.34-46.05c-6.3-6.25-11.81-13.26-16.39-20.85l-5.35-8.87   c-4.92-8.14-10.84-15.67-17.59-22.38c-6.13-6.09-18.57-3.95-33.65,5.64l-18.78-18.66c-5.18-5.14-13.59-5.14-18.76,0l-0.46,0.45   l-38.92-38.68l-3.04-15.09c-0.26-1.29-1.14-2.37-2.35-2.89L5.569,0.319c-1.51-0.64-3.25-0.3-4.4,0.86c-1.16,1.16-1.49,2.9-0.84,4.4   l19.66,45.59c0.52,1.21,1.6,2.09,2.89,2.34l15.21,3.03l38.89,38.64l-0.41,0.41c-2.52,2.5-3.9,5.83-3.9,9.36   c0,3.54,1.38,6.86,3.9,9.36l18.75,18.63c-9.65,14.99-11.79,27.37-5.65,33.47c6.75,6.71,14.33,12.59,22.52,17.47l8.93,5.32   c7.63,4.55,14.69,10.03,20.98,16.28l46.31,46.01l-6.98,6.94c-5.14,5.1-7.97,11.89-7.97,19.11c0,7.23,2.83,14.02,7.97,19.12   l11.93,11.86v29.98c0,10.06,3.94,19.53,11.1,26.64l23.28,23.13l-23.4,23.24c-4.25,4.23-6.59,9.85-6.59,15.83   c0,5.99,2.34,11.61,6.59,15.84l12.95,12.87c-6.48,7.35-12.89,11.56-18.67,12.21c-7.23,0.8-14.07-3.59-24.63-10.83   c-12.4-8.51-27.84-19.11-49.16-18.59c-18.09,0.43-35.49,8.68-51.67,24.47l-35.9,33.78c-1.2,1.12-1.58,2.86-0.98,4.38   c0.61,1.53,2.08,2.53,3.72,2.53h40c1,0,1.96-0.37,2.7-1.05l15.56-14.24c0.03-0.03,0.06-0.05,0.09-0.08   c9.46-9.19,18.66-13.96,27.34-14.17c9.71-0.26,17.77,5.3,27.98,12.31c12.51,8.57,28.08,19.25,48.98,16.89   c14.36-1.62,27.81-9.16,40.02-22.4l14.17,14.08c4.38,4.36,10.14,6.53,15.9,6.53s11.51-2.17,15.9-6.53l25.22-25.06   c2.04,0.89,4.17,1.61,6.37,2.12l16.04,3.67c2.75,0.64,5.53,0.95,8.27,0.95c9.53,0,18.72-3.73,25.66-10.62l99.12-98.49   C478.269,359.019,481.909,346.399,479.069,334.139z M311.299,200.129h29.34c7.99,0,15.49,3.09,21.13,8.7l67.4,66.96l-23.12,7.66   c-10.81,3.58-22.53,0.83-30.59-7.17l-68.34-67.9C308.569,205.659,309.959,202.909,311.299,200.129z M42.869,50.009   c-0.56-0.55-1.27-0.93-2.04-1.09l-14.33-2.84l-14.87-34.48l34.75,14.79l2.86,14.22c0.15,0.78,0.54,1.49,1.1,2.05l39.75,39.5   l-7.43,7.38L42.869,50.009z M82.199,108.629c-0.99-0.98-1.53-2.29-1.53-3.68c0-1.39,0.54-2.7,1.53-3.68l19.65-19.53   c1.04-1.02,2.39-1.53,3.75-1.53c1.35,0,2.71,0.51,3.74,1.53l19.65,19.53c0.99,0.98,1.54,2.29,1.54,3.68c0,1.39-0.55,2.7-1.54,3.68   l-19.65,19.53c-2.07,2.05-5.42,2.05-7.49,0L82.199,108.629z M112.849,174.859c-2.72-1.76-5.36-3.64-7.92-5.64   c11.85-2.75,26.91-13.06,39.54-25.61c13.6-13.52,23.13-28.28,25.72-39.43c2.05,2.58,3.99,5.25,5.79,8   c-0.39,7.74-7.86,22.7-24.04,38.78C135.729,167.069,120.639,174.489,112.849,174.859z M178.689,230.559l-26.62-26.45   c11.78-5.09,22.66-12.41,31.72-21.42c9.08-9.02,16.46-19.85,21.59-31.57l26.65,26.48c-4.73,11.91-11.99,22.93-21.1,31.98   C201.809,218.639,190.709,225.859,178.689,230.559z M181.459,277.539c0-5.07,1.99-9.85,5.61-13.44l7.48-7.43   c1.07,0.53,2.23,0.93,3.48,1.2c1.23,0.26,2.55,0.38,3.93,0.38c6.88,0,15.42-3.19,24.17-9.1c4.32-2.96,9.13-6.89,13.38-11.1   c6.27-6.24,11.37-12.94,14.89-19.4c3.52-6.47,5.47-12.69,5.47-17.98c0-2.75-0.55-5.22-1.6-7.32l7.46-7.41   c6.81-6.77,17.5-7.35,25.01-1.79c-11.05,22.76-25.76,43.36-43.76,61.25c-18.02,17.9-38.77,32.52-61.7,43.51   C182.819,285.639,181.459,281.699,181.459,277.539z M198.189,302.039l-7.1-7.05c22.81-11.24,43.49-25.99,61.53-43.92   c18.05-17.93,32.9-38.49,44.21-61.18l7.13,7.08c-11.06,22.84-25.81,43.51-43.87,61.45   C242.009,276.379,221.199,291.049,198.189,302.039z M282.999,489.669c-5.66,5.62-14.86,5.62-20.52,0l-52.5-52.17   c-2.73-2.71-4.23-6.32-4.23-10.16c0-3.83,1.5-7.44,4.23-10.15l3.77-3.75l72.98,72.52L282.999,489.669z M292.399,480.319   l-72.98-72.52l13.99-13.89l69.26,68.82c1.25,1.24,2.59,2.38,4,3.42L292.399,480.319z M269.209,307.479   c-1.92-1.91-2.97-4.44-2.97-7.14c0-2.7,1.05-5.23,2.97-7.14l25.8-25.63c1.99-1.98,4.61-2.97,7.22-2.97c2.62,0,5.24,0.99,7.23,2.97   l71.68,71.22c1.92,1.91,2.98,4.45,2.98,7.14c0,2.7-1.06,5.23-2.98,7.14l-25.8,25.64c-3.98,3.95-10.46,3.95-14.45,0L269.209,307.479   z M463.679,362.229l-99.12,98.5c-6.98,6.93-16.89,9.75-26.5,7.55l-16.04-3.68c-0.65-0.15-1.29-0.32-1.93-0.51l146.95-146.02   c0.2,0.64,0.38,1.29,0.53,1.95l3.7,15.93C473.489,345.489,470.649,355.309,463.679,362.229z"/><path d="M348.579,338.999c0.78,0.77,1.8,1.16,2.81,1.16c1.03,0,2.06-0.39,2.84-1.18c1.56-1.57,1.55-4.1-0.02-5.66l-45.88-45.59   c-1.57-1.55-4.1-1.55-5.66,0.02c-1.55,1.57-1.54,4.1,0.02,5.66L348.579,338.999z"/><path d="M341.099,346.349l-45.88-45.59c-1.56-1.56-4.1-1.55-5.65,0.02c-1.56,1.56-1.55,4.1,0.01,5.65l45.89,45.6   c0.78,0.77,1.8,1.16,2.82,1.16c1.02,0,2.05-0.4,2.83-1.18C342.679,350.439,342.669,347.909,341.099,346.349z"/></g><text x="0" y="518.999" fill="#000000" font-size="5px" font-weight="bold" font-family="'Helvetica Neue', Helvetica, Arial-Unicode, Arial, Sans-serif">Created by Amethyst Studio</text><text x="0" y="523.999" fill="#000000" font-size="5px" font-weight="bold" font-family="'Helvetica Neue', Helvetica, Arial-Unicode, Arial, Sans-serif">from the Noun Project</text></svg>