<svg xmlns="http://www.w3.org/2000/svg" xmlns:xlink="http://www.w3.org/1999/xlink" version="1.1" x="0px" y="0px" viewBox="0 0 100 125" style="enable-background:new 0 0 100 100;" xml:space="preserve"><path d="M50.705,71.523L28.477,49.295c-3.025-3.025-7.929-3.025-10.954,0c-0.324,0.324-9.165,9.165-8.864,8.864  c-0.879,0.879-0.879,2.303,0,3.182c0.879,0.879,2.303,0.879,3.182,0L17,56.182L19.818,59l-5.159,5.159  c-0.879,0.879-0.879,2.303,0,3.182c0.879,0.879,2.303,0.879,3.182,0L23,62.182L25.818,65l-5.159,5.159  c-0.879,0.879-0.879,2.303,0,3.182c0.879,0.879,2.303,0.879,3.182,0L29,68.182L31.818,71l-5.159,5.159  c-0.879,0.879-0.879,2.303,0,3.182c0.879,0.879,2.303,0.879,3.182,0L35,74.182L37.818,77l-5.159,5.159  c-0.879,0.879-0.879,2.303,0,3.182c0.879,0.879,2.303,0.879,3.182,0L41,80.182L43.818,83l-5.159,5.159  c-0.879,0.879-0.879,2.303,0,3.182c0.879,0.879,2.303,0.879,3.182,0c1.926-1.926,5.566-5.566,8.864-8.864  C53.73,79.452,53.73,74.548,50.705,71.523z"/><path d="M74.439,29.803L44.894,59.349l-4.242-4.242l29.546-29.546L74.439,29.803z"/><path d="M90.254,18.183l-9.475,9.475c-0.586,0.586-1.536,0.586-2.121,0l-6.315-6.315c-0.586-0.586-0.586-1.536,0-2.121l9.249-9.249  c2.101-2.101,5.485-2.613,7.897-0.877C92.56,11.308,92.816,15.621,90.254,18.183z"/><text x="0" y="115" fill="#000000" font-size="5px" font-weight="bold" font-family="'Helvetica Neue', Helvetica, Arial-Unicode, Arial, Sans-serif">Created by Ayub Irawan</text><text x="0" y="120" fill="#000000" font-size="5px" font-weight="bold" font-family="'Helvetica Neue', Helvetica, Arial-Unicode, Arial, Sans-serif">from the Noun Project</text></svg>