<svg xmlns="http://www.w3.org/2000/svg" xmlns:xlink="http://www.w3.org/1999/xlink" version="1.1" x="0px" y="0px" viewBox="0 0 70 87.5" style="enable-background:new 0 0 70 70;" xml:space="preserve"><g><path d="M55.29083,57.70377H14.70917c-1.13104,0-2.04796,0.91685-2.04796,2.04795v5.20033   c0,1.1311,0.91692,2.04796,2.04796,2.04796h40.58167c1.13104,0,2.04795-0.91685,2.04795-2.04796v-5.20033   C57.33879,58.62063,56.42187,57.70377,55.29083,57.70377z"/><path d="M41.36628,49.85728h-2.95929V6.40989c0-1.86566-1.50629-3.40991-3.40985-3.40991   c-1.88416,0-3.40985,1.52576-3.40985,3.40991v43.44739h-2.9491c-1.1366,0-2.04797,0.92157-2.04797,2.04797V55.653h16.82398   v-3.74774C43.41419,50.77885,42.49268,49.85728,41.36628,49.85728z"/></g><text x="0" y="85" fill="#000000" font-size="5px" font-weight="bold" font-family="'Helvetica Neue', Helvetica, Arial-Unicode, Arial, Sans-serif">Created by Vectors Point</text><text x="0" y="90" fill="#000000" font-size="5px" font-weight="bold" font-family="'Helvetica Neue', Helvetica, Arial-Unicode, Arial, Sans-serif">from the Noun Project</text></svg>