<svg xmlns="http://www.w3.org/2000/svg" data-name="Layer 1" viewBox="0 0 100 125" x="0px" y="0px"><title>sickle icon</title><desc>sickle, icon, vector, illustration, symbol, design, isolated, sign, farm, agriculture, background, graphic, russian, russia, art, work, hammer, soviet, revolution, communism, socialism, flat, communist, ussr, tool, white, emblem, concept, garden, politics, equipment, food, style, simple, silhouette, socialist, black, set, gardening, union, scythe, wheat, cccp, logo, symbolism, pictogram, harvesting, tractor, farmer, farming</desc><metadata><?xpacket begin="&#65279;" id="W5M0MpCehiHzreSzNTczkc9d"?><x:xmpmeta xmlns:x="adobe:ns:meta/" x:xmptk="Adobe XMP Core 7.1-c000 79.4d2f597, 2021/09/01-20:51:22        "/><?xpacket end="w"?></metadata><g><path d="M94.79828,85.73761a2.622,2.622,0,0,0-1.0155-1.63367c-.77924-.65741-1.603-1.27032-2.40827-1.8955q-2.38732-1.85358-4.81824-3.64985c-2.451-1.80774-4.94885-3.54992-7.46826-5.26068a1.0638,1.0638,0,0,0-.46173-.68139q-1.51153-.97935-3.023-1.95862c-1.15015-1.0033-2.61951-1.56134-3.74335-2.61945-1.3009-1.22485-2.929-2.4693-4.81134-1.741-.08349.03229-.16113.07685-.24182.11512a6.49658,6.49658,0,0,0-.64355-.71723,7.39232,7.39232,0,0,0-1.077-.83386.91435.91435,0,0,0-.39911-.12482,24.74227,24.74227,0,0,1-5.05749-9.16229,120.28306,120.28306,0,0,1-3.30908-13.06171c-1.78614-8.41577-1.99591-17.81414-7.48639-24.86657A25.81273,25.81273,0,0,0,30.36023,7.84924a21.97927,21.97927,0,0,0-11.6557,2.42853,25.757,25.757,0,0,0-8.74182,8.33728A32.79975,32.79975,0,0,0,5.00238,43.60657a.9682.9682,0,0,0,1.75354.28.89083.89083,0,0,0,.94061-.69733C9.20813,37.385,12.131,31.21851,16.60742,27.09558c4.55823-4.1983,12.07007-3.576,17.21308-.89831,5.10534,2.658,8.8388,7.387,11.17321,12.5672,1.39124,3.08721,1.81879,6.26367,2.44287,9.55285a29.03129,29.03129,0,0,0,2.72553,7.82788c2.92279,5.70063,7.47406,10.42591,12.30572,14.54956a1.00711,1.00711,0,0,0,.24262.13526,4.323,4.323,0,0,0-.55066,4.22491.9153.9153,0,0,0,.29529.35651,1.42536,1.42536,0,0,0,.28662.29291c3.37823,2.58087,6.02441,5.98046,9.47949,8.47216q3.18265,2.61347,6.36536,5.22693c1.31512,1.08,2.62524,2.16638,3.94592,3.23957a12.66721,12.66721,0,0,0,3.38733,2.17364C90.87079,96.70166,97.17474,90.72125,94.79828,85.73761ZM51.8891,55.13574a29.10933,29.10933,0,0,1-2.75592-8.69061,33.604,33.604,0,0,0-2.958-9.83655c-2.61175-5.22937-6.7196-9.98688-12.0805-12.50146-5.34778-2.50843-12.50092-3.06342-17.55555.48632-2.766,1.94251-4.86316,5.02942-6.56439,7.902a39.027,39.027,0,0,0-3.47986,7.71216c-1.3977-14.1051,7.62067-31.001,23.3255-30.38537A23.724,23.724,0,0,1,47.58966,19.2887a27.09126,27.09126,0,0,1,4.44391,10.95581c.89685,4.41058,1.51294,8.86956,2.45947,13.27282,1.75415,8.16089,3.38068,17.8993,9.916,23.75531a.938.938,0,0,0,.72143.24726c.01923.02173.03876.04327.05768.06531a14.09847,14.09847,0,0,0-1.37012,1.63934C59.128,65.21454,54.73126,60.67114,51.8891,55.13574ZM63.89978,74.09711c-.00738-.01758-.00464-.03394-.01306-.05158-.52429-1.09875.75238-2.57892,1.35327-3.38507a17.40755,17.40755,0,0,1,1.35187-1.62115,2.73667,2.73667,0,0,1,1.43793-.95465,2.24185,2.24185,0,0,1,1.71313.67865,61.54043,61.54043,0,0,0-5.16309,5.91143C64.35083,74.48492,64.135,74.27966,63.89978,74.09711ZM90.32123,92.40656a4.18283,4.18283,0,0,1-3.1853.705A8.30961,8.30961,0,0,1,84.09,91.34576c-3.49152-2.79821-6.92969-5.66613-10.38105-8.515a1.18962,1.18962,0,0,0-.115-.11041c-.06567-.04529-.12622-.09662-.19128-.14258-.45111-.37207-.90082-.74628-1.35266-1.11731a1.02576,1.02576,0,0,0-.27869-.14874c-1.98968-1.66669-3.7727-3.57892-5.68487-5.34162a58.1764,58.1764,0,0,1,5.08062-5.80536q1.56932,1.0167,3.13855,2.03339c.072.06451.15461.11536.2226.18494a.93085.93085,0,0,0,.45984.2572l.08551.05542a.97406.97406,0,0,0,.421.57532q4.54641,3.00311,8.95367,6.20922,2.20185,1.60419,4.36585,3.25947,1.11557.85326,2.2196,1.72149c.38117.29956,1.82569,1.10535,1.80164,1.64581a.87333.87333,0,0,0,.25647.68982C94.13116,89.08136,92.1568,91.286,90.32123,92.40656Z"/><path d="M28.49023,12.15051c-1.27856.07917-1.28753,2.07978,0,2,6.198-.38385,10.8769,4.30066,14.87275,8.39228.90087.92242,2.31451-.49231,1.41424-1.41419C40.41046,16.65723,35.23761,11.73267,28.49023,12.15051Z"/><path d="M46.577,27.80963c.03582.12805.02331.07233,0,0Z"/><path d="M47.36536,25.09985a1.00016,1.00016,0,0,0-1.72693,1.00946,10.67388,10.67388,0,0,1,.91644,1.63849c.00708.01581.01483.03919.02216.06183l-.01294-.04614a2.41073,2.41073,0,0,0,.0921.2287q.08377.21542.15808.43432c.10242.3017.19019.60785.26556.91736a1.00946,1.00946,0,0,0,1.23011.69843,1.02072,1.02072,0,0,0,.69848-1.23011A11.47817,11.47817,0,0,0,47.36536,25.09985Z"/></g><text x="0" y="115" fill="#000000" font-size="5px" font-weight="bold" font-family="'Helvetica Neue', Helvetica, Arial-Unicode, Arial, Sans-serif">Created by Handdrawn Factory</text><text x="0" y="120" fill="#000000" font-size="5px" font-weight="bold" font-family="'Helvetica Neue', Helvetica, Arial-Unicode, Arial, Sans-serif">from the Noun Project</text></svg>