<svg xmlns:dc="http://purl.org/dc/elements/1.1/" xmlns:cc="http://creativecommons.org/ns#" xmlns:rdf="http://www.w3.org/1999/02/22-rdf-syntax-ns#" xmlns:svg="http://www.w3.org/2000/svg" xmlns="http://www.w3.org/2000/svg" xmlns:sodipodi="http://sodipodi.sourceforge.net/DTD/sodipodi-0.dtd" xmlns:inkscape="http://www.inkscape.org/namespaces/inkscape" viewBox="0 0 16.933333 21.1666675" version="1.1" x="0px" y="0px"><g transform="translate(0,-280.06665)"><path style="color:#000000;font-style:normal;font-variant:normal;font-weight:normal;font-stretch:normal;font-size:medium;line-height:normal;font-family:sans-serif;font-variant-ligatures:normal;font-variant-position:normal;font-variant-caps:normal;font-variant-numeric:normal;font-variant-alternates:normal;font-feature-settings:normal;text-indent:0;text-align:start;text-decoration:none;text-decoration-line:none;text-decoration-style:solid;text-decoration-color:#000000;letter-spacing:normal;word-spacing:normal;text-transform:none;writing-mode:lr-tb;direction:ltr;text-orientation:mixed;dominant-baseline:auto;baseline-shift:baseline;text-anchor:start;white-space:normal;shape-padding:0;clip-rule:nonzero;display:inline;overflow:visible;visibility:visible;opacity:1;isolation:auto;mix-blend-mode:normal;color-interpolation:sRGB;color-interpolation-filters:linearRGB;solid-color:#000000;solid-opacity:1;vector-effect:none;fill:#000000;fill-opacity:1;fill-rule:nonzero;stroke:none;stroke-width:0.2645829;stroke-linecap:round;stroke-linejoin:round;stroke-miterlimit:4;stroke-dasharray:none;stroke-dashoffset:0;stroke-opacity:1;paint-order:stroke fill markers;color-rendering:auto;image-rendering:auto;shape-rendering:auto;text-rendering:auto;enable-background:accumulate" d="m 8.4672171,283.63875 1.312e-4,2e-5 c -2.0585079,0 -3.9221527,0.29744 -5.2828816,0.78341 -0.6803494,0.24299 -1.2363129,0.53165 -1.6293525,0.86352 -0.3918797,0.3309 -0.62698496,0.71516 -0.62838496,1.12913 a 0.13230478,0.13230478 0 0 0 -5.0436e-4,0.004 c 0,2.06881 0.54215942,3.80947 1.76577812,5.03896 1.2236391,1.22949 3.1162603,1.93331 5.7732782,1.97043 a 0.13230478,0.13230478 0 0 0 0.004,0 c 2.6388178,-0.0371 4.5296808,-0.74118 5.7577998,-1.97043 1.228089,-1.22925 1.779222,-2.96975 1.779222,-5.03896 0,-0.41536 -0.235882,-0.80088 -0.628922,-1.13274 -0.39301,-0.33187 -0.948482,-0.62054 -1.628831,-0.86352 -1.360718,-0.48597 -3.222808,-0.78342 -5.2813346,-0.78342 z m -3.048e-4,0.26563 4.381e-4,10e-6 c 2.0329986,0 3.8729086,0.29421 5.1934776,0.76584 0.660289,0.23582 1.18996,0.51734 1.54667,0.81856 0.35674,0.30121 0.535384,0.61439 0.535384,0.92966 0,0.31517 -0.178834,0.62645 -0.535384,0.92758 -0.35671,0.30122 -0.886381,0.58274 -1.54667,0.81856 -0.49507,0.17681 -1.063892,0.32831 -1.687751,0.44906 -0.41236,0.0798 -0.849176,0.14604 -1.305346,0.19689 l -0.470247,-2.35334 c 0.002,-0.0131 0.006,-0.0251 0.006,-0.0388 0,-0.12662 -0.07949,-0.23028 -0.179305,-0.30489 -0.0997,-0.0746 -0.2284444,-0.13251 -0.3829343,-0.18138 -0.3089599,-0.0977 -0.7194879,-0.15452 -1.1740878,-0.15452 -0.4545792,0 -0.8666655,0.0568 -1.1756254,0.15452 -0.1544598,0.0489 -0.2831844,0.10678 -0.3829343,0.18138 -0.0997,0.0746 -0.179826,0.17827 -0.1798255,0.30489 0,0.0155 0.00499,0.0292 0.00699,0.0439 l -0.4702633,2.34818 c -0.2259798,-0.0252 -0.4476454,-0.0538 -0.6635249,-0.0863 -0.2197302,-0.0331 -0.433841,-0.0704 -0.6418211,-0.11059 h -5.042e-4 c -0.2079598,-0.0402 -0.4097025,-0.0838 -0.604622,-0.13074 h -5.126e-4 c -0.1950699,-0.0469 -0.383092,-0.0972 -0.5638019,-0.15039 -0.1807098,-0.0532 -0.3537346,-0.10898 -0.5188144,-0.16794 -0.6602894,-0.23582 -1.1904597,-0.51734 -1.5471995,-0.81855 -0.3567396,-0.30122 -0.534863,-0.61232 -0.534863,-0.92759 0,-0.31527 0.1781234,-0.62845 0.534863,-0.92966 0.3567398,-0.30122 0.8869101,-0.58274 1.5471995,-0.81856 1.3205578,-0.47163 3.1620356,-0.76584 5.195014,-0.76584 z m 4.381e-4,2.13683 c 0.4319796,0 0.8219518,0.0566 1.0940017,0.14263 0.1360199,0.043 0.2416398,0.0957 0.3043697,0.14262 0.0627,0.0469 0.074397,0.0784 0.074397,0.092 0,0.002 -0.003,0.007 -0.004,0.01 -0.002,0.008 -0.0112,0.0214 -0.0243,0.0367 -0.004,0.005 -0.011399,0.0106 -0.016999,0.016 -0.0121,0.0117 -0.0285,0.0248 -0.0476,0.0382 -0.0195,0.0134 -0.044296,0.027 -0.070296,0.0408 -0.0189,0.0101 -0.037298,0.02 -0.059498,0.03 -0.0307,0.0139 -0.066604,0.0268 -0.1028237,0.0398 -0.0246,0.009 -0.048102,0.0181 -0.074902,0.0264 -0.0456,0.0139 -0.096195,0.0266 -0.1477949,0.0388 -0.0247,0.006 -0.047505,0.0122 -0.073405,0.0176 -0.0548,0.0114 -0.1143253,0.0208 -0.1741452,0.03 -0.0287,0.004 -0.055504,0.01 -0.085204,0.0134 -0.0558,0.007 -0.1155945,0.0123 -0.1746744,0.0176 -0.0383,0.003 -0.074803,0.008 -0.1141924,0.0103 -0.0978,0.006 -0.1991003,0.009 -0.3028402,0.009 -0.10375,0 -0.2048157,-0.003 -0.3028156,-0.009 -0.0393,-0.002 -0.075606,-0.007 -0.1136962,-0.0103 -0.0596,-0.005 -0.1198739,-0.0102 -0.1762039,-0.0176 -0.0283,-0.004 -0.053803,-0.009 -0.081103,-0.0129 -0.0623,-0.01 -0.1240675,-0.0192 -0.1808673,-0.031 -0.0226,-0.005 -0.042404,-0.0105 -0.064104,-0.0155 -0.0549,-0.0128 -0.1083856,-0.0261 -0.1565757,-0.0408 -0.0266,-0.008 -0.049701,-0.0175 -0.073901,-0.0263 -0.0348,-0.0125 -0.068998,-0.025 -0.098698,-0.0382 -0.0283,-0.0128 -0.052306,-0.0253 -0.075406,-0.0382 -0.0175,-0.01 -0.035301,-0.0194 -0.049601,-0.0289 -0.0263,-0.0177 -0.048396,-0.0348 -0.062996,-0.0496 -0.002,-0.002 -0.005,-0.005 -0.007,-0.007 -0.0148,-0.0161 -0.0236,-0.0293 -0.0264,-0.0377 -9.296e-4,-0.003 -0.00499,-0.009 -0.00499,-0.0114 0,-0.0136 0.011193,-0.0451 0.073893,-0.092 0.0627,-0.0469 0.1688625,-0.0996 0.3048823,-0.14263 0.2720499,-0.0861 0.66358,-0.14262 1.0955397,-0.14262 z m -1.5187567,0.70331 c 0.004,0.002 0.008,0.004 0.011402,0.007 0.002,0.002 0.00299,0.005 0.00599,0.007 0.0135,0.008 0.0311,0.0152 0.0455,0.0232 0.0344,0.0193 0.069307,0.0383 0.1085371,0.0553 0.0301,0.0132 0.063293,0.0252 0.096093,0.0372 0.026,0.009 0.048301,0.0202 0.076001,0.0289 0.01,0.003 0.021198,0.005 0.030998,0.008 0.01,0.003 0.017501,0.007 0.027401,0.009 0.038,0.011 0.0812,0.0197 0.1219398,0.0295 0.0299,0.007 0.058105,0.0147 0.089405,0.0212 0.0635,0.0132 0.1309407,0.0244 0.1994707,0.0346 0.0262,0.004 0.050698,0.009 0.077498,0.0124 0.064,0.008 0.1315215,0.0134 0.1989415,0.0191 0.0376,0.003 0.073499,0.008 0.1121583,0.0103 0.1031802,0.006 0.2091494,0.01 0.3177893,0.01 0.1086599,-4e-5 0.2146256,-0.003 0.3178058,-0.01 0.0379,-0.002 0.073205,-0.007 0.1100747,-0.01 0.0684,-0.006 0.1366599,-0.0117 0.2015298,-0.0202 0.0233,-0.003 0.044396,-0.007 0.067196,-0.0103 0.0736,-0.0108 0.1455842,-0.0225 0.2134445,-0.0367 0.022399,-0.005 0.042395,-0.0105 0.064095,-0.0155 0.0483,-0.0112 0.098499,-0.0217 0.1431394,-0.0346 0.0114,-0.003 0.020402,-0.007 0.031502,-0.0109 0.008,-0.002 0.017501,-0.004 0.025301,-0.007 0.0233,-0.007 0.041904,-0.0165 0.064104,-0.0243 0.0383,-0.0137 0.077,-0.0275 0.1116295,-0.0429 0.0372,-0.0162 0.07,-0.0349 0.1028398,-0.0532 0.0151,-0.008 0.033301,-0.0154 0.047501,-0.0243 0.003,-0.002 0.00399,-0.004 0.00499,-0.006 0.004,-0.002 0.008,-0.004 0.011402,-0.007 l 0.4190671,2.08515 c -0.6312903,0.0623 -1.2799622,0.0991 -1.9357816,0.0997 -0.6551095,-4.9e-4 -1.3044791,-0.0377 -1.9352685,-0.0997 z m 8.6738703,0.56686 c -0.14017,1.60086 -0.602927,2.97758 -1.582836,3.95842 -1.167309,1.16839 -2.979022,1.85724 -5.5702202,1.89445 -2.6121178,-0.0365 -4.4265755,-0.72564 -5.5898145,-1.89445 -0.9759124,-0.98059 -1.430912,-2.35734 -1.5688952,-3.95838 0.0729,0.0817 0.153897,0.16126 0.2444169,0.23771 0.3930397,0.33187 0.9490031,0.62052 1.6293525,0.86351 1.0899291,0.38925 2.5054446,0.65437 4.082443,0.74569 0.08,0.005 0.1599416,0.009 0.2402915,0.0129 0.1088198,0.005 0.2174081,0.01 0.327628,0.0129 0.2103198,0.007 0.4211096,0.0112 0.6325191,0.0114 0.2113499,-2.1e-4 0.4220351,-0.005 0.6320146,-0.0114 0.043,-10e-4 0.087395,-5.2e-4 0.1302245,-0.002 0.0679,-0.002 0.1331644,-0.008 0.2005044,-0.0109 0.0772,-0.004 0.1540877,-0.008 0.2309976,-0.0124 0.8412998,-0.0485 1.6389088,-0.14456 2.3626278,-0.28526 0.63553,-0.12343 1.216762,-0.27871 1.727042,-0.46095 0.51009,-0.18218 0.948895,-0.39028 1.302245,-0.6227 h 4.96e-4 c 0.11785,-0.0774 0.225855,-0.15793 0.324015,-0.24081 0.0906,-0.0765 0.172006,-0.15595 0.244947,-0.23772 z"/></g><text x="0" y="31.933334" fill="#000000" font-size="5px" font-weight="bold" font-family="'Helvetica Neue', Helvetica, Arial-Unicode, Arial, Sans-serif">Created by Edi Prastyo</text><text x="0" y="36.933334" fill="#000000" font-size="5px" font-weight="bold" font-family="'Helvetica Neue', Helvetica, Arial-Unicode, Arial, Sans-serif">from the Noun Project</text></svg>