<svg xmlns:dc="http://purl.org/dc/elements/1.1/" xmlns:cc="http://creativecommons.org/ns#" xmlns:rdf="http://www.w3.org/1999/02/22-rdf-syntax-ns#" xmlns:svg="http://www.w3.org/2000/svg" xmlns="http://www.w3.org/2000/svg" xmlns:sodipodi="http://sodipodi.sourceforge.net/DTD/sodipodi-0.dtd" xmlns:inkscape="http://www.inkscape.org/namespaces/inkscape" viewBox="0 0 64.000002 80.00000125" version="1.1" x="0px" y="0px"><g transform="translate(1031,-877.36218)"><path style="color:#000000;font-style:normal;font-variant:normal;font-weight:normal;font-stretch:normal;font-size:medium;line-height:normal;font-family:sans-serif;text-indent:0;text-align:start;text-decoration:none;text-decoration-line:none;text-decoration-style:solid;text-decoration-color:#000000;letter-spacing:normal;word-spacing:normal;text-transform:none;direction:ltr;block-progression:tb;writing-mode:lr-tb;baseline-shift:baseline;text-anchor:start;white-space:normal;clip-rule:nonzero;display:inline;overflow:visible;visibility:visible;opacity:1;isolation:auto;mix-blend-mode:normal;color-interpolation:sRGB;color-interpolation-filters:linearRGB;solid-color:#000000;solid-opacity:1;fill:#000000;fill-opacity:1;fill-rule:nonzero;stroke:none;stroke-width:1;stroke-linecap:round;stroke-linejoin:round;stroke-miterlimit:4;stroke-dasharray:none;stroke-dashoffset:0;stroke-opacity:1;paint-order:fill markers stroke;color-rendering:auto;image-rendering:auto;shape-rendering:auto;text-rendering:auto;enable-background:accumulate" d="M 44.5 15 C 44.3674 15.00002 44.240244 15.052704 44.146484 15.146484 L 42.292969 17 L 39.5 17 C 39.3674 17.00002 39.240244 17.052704 39.146484 17.146484 L 37.292969 19 L 34.5 19 C 34.22387 19.00003 34.00003 19.22387 34 19.5 L 34 20 L 34 23 L 34 23.5 C 34.00003 23.77613 34.22387 23.99997 34.5 24 L 37.292969 24 L 39.146484 25.853516 C 39.240284 25.947216 39.36741 25.99999 39.5 26 L 42.332031 26 L 46.199219 28.900391 C 46.286019 28.965291 46.39159 29.0003 46.5 29 L 53.5 29 C 53.77613 28.99997 53.99997 28.77613 54 28.5 L 54 27 L 48.121094 27 C 47.916684 27.00289 47.772753 26.911493 47.689453 26.783203 C 47.635425 26.699993 47.578378 26.616893 47.5 26.5 L 47.339844 26.259766 L 45.5 23.5 L 45.5 19.5 L 47 19.5 L 47 15 L 44.5 15 z M 48 15 L 48 20.666016 L 50.285156 26 L 53.880859 26 L 50.982422 15.369141 C 50.923322 15.151341 50.72567 15.00009 50.5 15 L 48 15 z M 23.5 20 C 18.6777 20 14.219694 22.57379 11.808594 26.75 C 9.3974929 30.92621 9.3974928 36.07379 11.808594 40.25 C 14.213794 44.41601 18.656144 46.985507 23.464844 46.998047 C 23.476844 46.999047 23.488 47 23.5 47 L 45 47 L 45 47.5 C 45.00003 47.77613 45.22387 47.99997 45.5 48 L 53.5 48 C 53.77613 47.99997 53.99997 47.77613 54 47.5 L 54 43.5 C 53.99997 43.22387 53.77613 43.00003 53.5 43 L 45.5 43 C 45.22387 43.00003 45.00003 43.22387 45 43.5 L 45 44 L 23.5 44 C 19.7479 44 16.28225 41.99941 14.40625 38.75 C 12.53025 35.50059 12.53025 31.49941 14.40625 28.25 C 16.28225 25.00059 19.7479 23 23.5 23 L 33 23 L 33 20 L 23.535156 20 C 23.523156 19.99959 23.512 19.99959 23.5 20 z " transform="translate(-1031,877.36218)"/></g><text x="0" y="79.000001" fill="#000000" font-size="5px" font-weight="bold" font-family="'Helvetica Neue', Helvetica, Arial-Unicode, Arial, Sans-serif">Created by Dedy Dwi Qoirudin</text><text x="0" y="84.000001" fill="#000000" font-size="5px" font-weight="bold" font-family="'Helvetica Neue', Helvetica, Arial-Unicode, Arial, Sans-serif">from the Noun Project</text></svg>